<mxfile host="app.diagrams.net" modified="2020-11-08T16:55:01.873Z" agent="5.0 (Windows NT 10.0; Win64; x64) AppleWebKit/537.36 (KHTML, like Gecko) Chrome/86.0.4240.183 Safari/537.36" etag="sfpXhS4KhZn-QMEhYkfO" version="13.9.2" type="github">
  <diagram id="llPCNM7c6rKGlb3UE4iD" name="Page-2">
    <mxGraphModel dx="1422" dy="794" grid="1" gridSize="10" guides="1" tooltips="1" connect="1" arrows="1" fold="1" page="1" pageScale="1" pageWidth="827" pageHeight="1169" math="0" shadow="0">
      <root>
        <mxCell id="IJnll5uJMSZ8LJvvy6Eq-0" />
        <mxCell id="IJnll5uJMSZ8LJvvy6Eq-1" parent="IJnll5uJMSZ8LJvvy6Eq-0" />
        <mxCell id="qED0b3XlIijxAPaFemkb-0" value="&lt;p style=&quot;margin: 0px ; margin-top: 4px ; text-align: center&quot;&gt;&lt;i&gt;&amp;lt;&amp;lt;Interface&amp;gt;&amp;gt;&lt;/i&gt;&lt;/p&gt;&lt;p style=&quot;margin: 0px ; margin-top: 4px ; text-align: center&quot;&gt;&lt;i&gt;&lt;b&gt;Translator&lt;/b&gt;&lt;/i&gt;&lt;/p&gt;&lt;hr size=&quot;1&quot;&gt;&lt;p style=&quot;margin: 0px ; margin-left: 4px&quot;&gt;+ version: double&lt;br&gt;&lt;/p&gt;&lt;p style=&quot;margin: 0px ; margin-left: 4px&quot;&gt;+ translateNumber(int): String&lt;/p&gt;" style="verticalAlign=top;align=left;overflow=fill;fontSize=12;fontFamily=Helvetica;html=1;" vertex="1" parent="IJnll5uJMSZ8LJvvy6Eq-1">
          <mxGeometry x="319" y="70" width="190" height="90" as="geometry" />
        </mxCell>
        <mxCell id="qED0b3XlIijxAPaFemkb-1" value="GermanTranslator" style="swimlane;fontStyle=1;align=center;verticalAlign=top;childLayout=stackLayout;horizontal=1;startSize=26;horizontalStack=0;resizeParent=1;resizeParentMax=0;resizeLast=0;collapsible=1;marginBottom=0;" vertex="1" parent="IJnll5uJMSZ8LJvvy6Eq-1">
          <mxGeometry x="40" y="70" width="200" height="146" as="geometry" />
        </mxCell>
        <mxCell id="qED0b3XlIijxAPaFemkb-2" value="+ date: String" style="text;strokeColor=none;fillColor=none;align=left;verticalAlign=top;spacingLeft=4;spacingRight=4;overflow=hidden;rotatable=0;points=[[0,0.5],[1,0.5]];portConstraint=eastwest;" vertex="1" parent="qED0b3XlIijxAPaFemkb-1">
          <mxGeometry y="26" width="200" height="26" as="geometry" />
        </mxCell>
        <mxCell id="qED0b3XlIijxAPaFemkb-3" value="" style="line;strokeWidth=1;fillColor=none;align=left;verticalAlign=middle;spacingTop=-1;spacingLeft=3;spacingRight=3;rotatable=0;labelPosition=right;points=[];portConstraint=eastwest;" vertex="1" parent="qED0b3XlIijxAPaFemkb-1">
          <mxGeometry y="52" width="200" height="8" as="geometry" />
        </mxCell>
        <mxCell id="qED0b3XlIijxAPaFemkb-4" value="+ translateNumber(int): String" style="text;strokeColor=none;fillColor=none;align=left;verticalAlign=top;spacingLeft=4;spacingRight=4;overflow=hidden;rotatable=0;points=[[0,0.5],[1,0.5]];portConstraint=eastwest;" vertex="1" parent="qED0b3XlIijxAPaFemkb-1">
          <mxGeometry y="60" width="200" height="30" as="geometry" />
        </mxCell>
        <mxCell id="qED0b3XlIijxAPaFemkb-23" value="+printInfo(): void" style="text;strokeColor=none;fillColor=none;align=left;verticalAlign=top;spacingLeft=4;spacingRight=4;overflow=hidden;rotatable=0;points=[[0,0.5],[1,0.5]];portConstraint=eastwest;" vertex="1" parent="qED0b3XlIijxAPaFemkb-1">
          <mxGeometry y="90" width="200" height="30" as="geometry" />
        </mxCell>
        <mxCell id="qED0b3XlIijxAPaFemkb-25" value="+setDate(): void" style="text;strokeColor=none;fillColor=none;align=left;verticalAlign=top;spacingLeft=4;spacingRight=4;overflow=hidden;rotatable=0;points=[[0,0.5],[1,0.5]];portConstraint=eastwest;" vertex="1" parent="qED0b3XlIijxAPaFemkb-1">
          <mxGeometry y="120" width="200" height="26" as="geometry" />
        </mxCell>
        <mxCell id="qED0b3XlIijxAPaFemkb-9" value="Client" style="swimlane;fontStyle=1;align=center;verticalAlign=top;childLayout=stackLayout;horizontal=1;startSize=26;horizontalStack=0;resizeParent=1;resizeParentMax=0;resizeLast=0;collapsible=1;marginBottom=0;" vertex="1" parent="IJnll5uJMSZ8LJvvy6Eq-1">
          <mxGeometry x="520" y="250" width="160" height="60" as="geometry" />
        </mxCell>
        <mxCell id="qED0b3XlIijxAPaFemkb-10" value="+ field: type" style="text;strokeColor=none;fillColor=none;align=left;verticalAlign=top;spacingLeft=4;spacingRight=4;overflow=hidden;rotatable=0;points=[[0,0.5],[1,0.5]];portConstraint=eastwest;" vertex="1" parent="qED0b3XlIijxAPaFemkb-9">
          <mxGeometry y="26" width="160" height="26" as="geometry" />
        </mxCell>
        <mxCell id="qED0b3XlIijxAPaFemkb-11" value="" style="line;strokeWidth=1;fillColor=none;align=left;verticalAlign=middle;spacingTop=-1;spacingLeft=3;spacingRight=3;rotatable=0;labelPosition=right;points=[];portConstraint=eastwest;" vertex="1" parent="qED0b3XlIijxAPaFemkb-9">
          <mxGeometry y="52" width="160" height="8" as="geometry" />
        </mxCell>
        <mxCell id="qED0b3XlIijxAPaFemkb-13" value="Factory" style="swimlane;fontStyle=1;align=center;verticalAlign=top;childLayout=stackLayout;horizontal=1;startSize=26;horizontalStack=0;resizeParent=1;resizeParentMax=0;resizeLast=0;collapsible=1;marginBottom=0;" vertex="1" parent="IJnll5uJMSZ8LJvvy6Eq-1">
          <mxGeometry x="40" y="280" width="240" height="60" as="geometry" />
        </mxCell>
        <mxCell id="qED0b3XlIijxAPaFemkb-14" value="+createGermanTranslator(): Object" style="text;strokeColor=none;fillColor=none;align=left;verticalAlign=top;spacingLeft=4;spacingRight=4;overflow=hidden;rotatable=0;points=[[0,0.5],[1,0.5]];portConstraint=eastwest;fontStyle=4" vertex="1" parent="qED0b3XlIijxAPaFemkb-13">
          <mxGeometry y="26" width="240" height="26" as="geometry" />
        </mxCell>
        <mxCell id="qED0b3XlIijxAPaFemkb-15" value="" style="line;strokeWidth=1;fillColor=none;align=left;verticalAlign=middle;spacingTop=-1;spacingLeft=3;spacingRight=3;rotatable=0;labelPosition=right;points=[];portConstraint=eastwest;" vertex="1" parent="qED0b3XlIijxAPaFemkb-13">
          <mxGeometry y="52" width="240" height="8" as="geometry" />
        </mxCell>
        <mxCell id="qED0b3XlIijxAPaFemkb-20" value="" style="text;strokeColor=none;fillColor=none;align=left;verticalAlign=middle;spacingTop=-1;spacingLeft=4;spacingRight=4;rotatable=0;labelPosition=right;points=[];portConstraint=eastwest;" vertex="1" parent="IJnll5uJMSZ8LJvvy6Eq-1">
          <mxGeometry x="170" y="180" width="20" height="14" as="geometry" />
        </mxCell>
        <mxCell id="qED0b3XlIijxAPaFemkb-26" value="" style="endArrow=block;dashed=1;endFill=0;endSize=12;html=1;exitX=1.005;exitY=0.137;exitDx=0;exitDy=0;exitPerimeter=0;" edge="1" parent="IJnll5uJMSZ8LJvvy6Eq-1" source="qED0b3XlIijxAPaFemkb-1">
          <mxGeometry width="160" relative="1" as="geometry">
            <mxPoint x="270" y="210" as="sourcePoint" />
            <mxPoint x="318" y="90" as="targetPoint" />
          </mxGeometry>
        </mxCell>
      </root>
    </mxGraphModel>
  </diagram>
</mxfile>
